<svg xmlns="http://www.w3.org/2000/svg" xmlns:xlink="http://www.w3.org/1999/xlink" width="500" zoomAndPan="magnify" viewBox="0 0 375 374.999991" height="500" preserveAspectRatio="xMidYMid meet" version="1.0"><defs><g/><clipPath id="bd4c7296ab"><path d="M 157.078125 88.523438 L 221.578125 88.523438 L 221.578125 210.023438 L 157.078125 210.023438 Z M 157.078125 88.523438 " clip-rule="nonzero"/></clipPath><clipPath id="93ba10e00d"><path d="M 196.027344 135.359375 C 199.660156 134.261719 203.078125 132.585938 206.128906 130.441406 C 206.660156 130.878906 207.1875 131.359375 207.679688 131.863281 C 212.367188 136.605469 215.273438 143.136719 215.273438 150.367188 C 215.273438 157.582031 212.367188 164.117188 207.679688 168.859375 C 203.515625 173.027344 197.96875 175.816406 191.785156 176.402344 L 191.785156 150.636719 C 191.785156 129.785156 180.011719 111 159.550781 107.957031 C 156.09375 117.25 156.621094 127.542969 161 136.410156 C 161.160156 136.726562 161.3125 137.035156 161.472656 137.335938 C 159.640625 141.300781 158.636719 145.71875 158.636719 150.375 C 158.636719 158.917969 162.070312 166.640625 167.628906 172.242188 C 172.632812 177.300781 179.359375 180.605469 186.871094 181.207031 C 186.871094 185.632812 185.300781 189.433594 182.203125 192.578125 L 182.148438 192.617188 C 178.21875 196.59375 178.21875 203.097656 182.148438 207.074219 C 186.097656 211.035156 192.550781 211.035156 196.496094 207.074219 C 200.441406 203.097656 200.441406 196.59375 196.496094 192.617188 L 196.457031 192.578125 C 193.355469 189.433594 191.792969 185.632812 191.792969 181.207031 C 199.277344 180.605469 206.03125 177.300781 211.035156 172.242188 C 216.582031 166.648438 220.023438 158.917969 220.023438 150.375 C 220.023438 141.832031 216.589844 134.085938 211.035156 128.492188 C 210.667969 128.125 210.292969 127.769531 209.894531 127.414062 C 213.066406 124.484375 215.710938 120.964844 217.664062 116.984375 C 222.03125 108.125 222.5625 97.824219 219.113281 88.53125 C 201.46875 91.15625 190.28125 105.476562 187.53125 122.738281 C 189.253906 125.421875 190.664062 128.332031 191.796875 131.421875 C 191.796875 130.726562 191.8125 130.269531 191.8125 130.09375 C 192.535156 115.867188 200.855469 102.882812 213.894531 96.496094 C 201.308594 105.160156 194.457031 120.074219 196.042969 135.367188 Z M 186.863281 174.449219 L 186.863281 150.738281 C 186.847656 150.097656 186.847656 149.671875 186.824219 149.511719 C 186.121094 135.28125 177.804688 122.300781 164.761719 115.90625 C 177.34375 124.570312 184.195312 139.492188 182.609375 154.777344 C 175.40625 152.589844 169.128906 148.1875 164.617188 142.273438 C 163.804688 144.8125 163.367188 147.53125 163.367188 150.351562 C 163.367188 157.566406 166.269531 164.101562 170.960938 168.84375 C 174.648438 172.558594 179.4375 175.167969 184.808594 176.101562 L 186.816406 179.640625 L 186.816406 176.371094 C 186.832031 175.445312 186.832031 174.9375 186.855469 174.433594 Z M 186.863281 174.449219 " clip-rule="evenodd"/></clipPath><linearGradient x1="53.611663" gradientTransform="matrix(0.766366, 0, 0, 0.77236, 157.296922, 88.524418)" y1="-0.414459" x2="51.38944" gradientUnits="userSpaceOnUse" y2="158.034754" id="8d9629f8e3"><stop stop-opacity="1" stop-color="rgb(1.599121%, 52.198792%, 41.19873%)" offset="0"/><stop stop-opacity="1" stop-color="rgb(1.599121%, 52.198792%, 41.19873%)" offset="0.0074481"/><stop stop-opacity="1" stop-color="rgb(1.599121%, 52.198792%, 41.19873%)" offset="0.125"/><stop stop-opacity="1" stop-color="rgb(1.599121%, 52.198792%, 41.19873%)" offset="0.15625"/><stop stop-opacity="1" stop-color="rgb(1.805115%, 52.29187%, 41.152954%)" offset="0.160156"/><stop stop-opacity="1" stop-color="rgb(2.011108%, 52.384949%, 41.108704%)" offset="0.164062"/><stop stop-opacity="1" stop-color="rgb(2.287292%, 52.508545%, 41.047668%)" offset="0.167969"/><stop stop-opacity="1" stop-color="rgb(2.563477%, 52.633667%, 40.988159%)" offset="0.171875"/><stop stop-opacity="1" stop-color="rgb(2.839661%, 52.758789%, 40.927124%)" offset="0.175781"/><stop stop-opacity="1" stop-color="rgb(3.115845%, 52.883911%, 40.866089%)" offset="0.179688"/><stop stop-opacity="1" stop-color="rgb(3.392029%, 53.007507%, 40.805054%)" offset="0.183594"/><stop stop-opacity="1" stop-color="rgb(3.668213%, 53.132629%, 40.745544%)" offset="0.1875"/><stop stop-opacity="1" stop-color="rgb(3.944397%, 53.256226%, 40.684509%)" offset="0.191406"/><stop stop-opacity="1" stop-color="rgb(4.220581%, 53.381348%, 40.625%)" offset="0.195312"/><stop stop-opacity="1" stop-color="rgb(4.496765%, 53.50647%, 40.563965%)" offset="0.199219"/><stop stop-opacity="1" stop-color="rgb(4.772949%, 53.631592%, 40.50293%)" offset="0.203125"/><stop stop-opacity="1" stop-color="rgb(5.049133%, 53.755188%, 40.441895%)" offset="0.207031"/><stop stop-opacity="1" stop-color="rgb(5.326843%, 53.88031%, 40.382385%)" offset="0.210938"/><stop stop-opacity="1" stop-color="rgb(5.603027%, 54.003906%, 40.32135%)" offset="0.214844"/><stop stop-opacity="1" stop-color="rgb(5.879211%, 54.129028%, 40.260315%)" offset="0.21875"/><stop stop-opacity="1" stop-color="rgb(6.155396%, 54.25415%, 40.19928%)" offset="0.222656"/><stop stop-opacity="1" stop-color="rgb(6.43158%, 54.379272%, 40.139771%)" offset="0.226562"/><stop stop-opacity="1" stop-color="rgb(6.707764%, 54.502869%, 40.078735%)" offset="0.230469"/><stop stop-opacity="1" stop-color="rgb(6.983948%, 54.627991%, 40.0177%)" offset="0.234375"/><stop stop-opacity="1" stop-color="rgb(7.260132%, 54.751587%, 39.956665%)" offset="0.238281"/><stop stop-opacity="1" stop-color="rgb(7.536316%, 54.876709%, 39.897156%)" offset="0.242188"/><stop stop-opacity="1" stop-color="rgb(7.8125%, 55.001831%, 39.836121%)" offset="0.246094"/><stop stop-opacity="1" stop-color="rgb(8.088684%, 55.126953%, 39.776611%)" offset="0.25"/><stop stop-opacity="1" stop-color="rgb(8.364868%, 55.250549%, 39.715576%)" offset="0.253906"/><stop stop-opacity="1" stop-color="rgb(8.642578%, 55.375671%, 39.654541%)" offset="0.257812"/><stop stop-opacity="1" stop-color="rgb(8.918762%, 55.499268%, 39.593506%)" offset="0.261719"/><stop stop-opacity="1" stop-color="rgb(9.194946%, 55.62439%, 39.533997%)" offset="0.265625"/><stop stop-opacity="1" stop-color="rgb(9.47113%, 55.749512%, 39.472961%)" offset="0.269531"/><stop stop-opacity="1" stop-color="rgb(9.747314%, 55.874634%, 39.411926%)" offset="0.273438"/><stop stop-opacity="1" stop-color="rgb(10.023499%, 55.99823%, 39.350891%)" offset="0.277344"/><stop stop-opacity="1" stop-color="rgb(10.299683%, 56.123352%, 39.291382%)" offset="0.28125"/><stop stop-opacity="1" stop-color="rgb(10.575867%, 56.246948%, 39.230347%)" offset="0.285156"/><stop stop-opacity="1" stop-color="rgb(10.852051%, 56.37207%, 39.170837%)" offset="0.289062"/><stop stop-opacity="1" stop-color="rgb(11.128235%, 56.497192%, 39.109802%)" offset="0.292969"/><stop stop-opacity="1" stop-color="rgb(11.405945%, 56.622314%, 39.048767%)" offset="0.296875"/><stop stop-opacity="1" stop-color="rgb(11.682129%, 56.745911%, 38.987732%)" offset="0.300781"/><stop stop-opacity="1" stop-color="rgb(11.958313%, 56.871033%, 38.928223%)" offset="0.304688"/><stop stop-opacity="1" stop-color="rgb(12.234497%, 56.994629%, 38.867188%)" offset="0.308594"/><stop stop-opacity="1" stop-color="rgb(12.510681%, 57.119751%, 38.806152%)" offset="0.3125"/><stop stop-opacity="1" stop-color="rgb(12.786865%, 57.244873%, 38.745117%)" offset="0.316406"/><stop stop-opacity="1" stop-color="rgb(13.063049%, 57.369995%, 38.685608%)" offset="0.320312"/><stop stop-opacity="1" stop-color="rgb(13.339233%, 57.493591%, 38.624573%)" offset="0.324219"/><stop stop-opacity="1" stop-color="rgb(13.615417%, 57.618713%, 38.563538%)" offset="0.328125"/><stop stop-opacity="1" stop-color="rgb(13.891602%, 57.74231%, 38.502502%)" offset="0.332031"/><stop stop-opacity="1" stop-color="rgb(14.167786%, 57.867432%, 38.442993%)" offset="0.335938"/><stop stop-opacity="1" stop-color="rgb(14.44397%, 57.992554%, 38.381958%)" offset="0.339844"/><stop stop-opacity="1" stop-color="rgb(14.72168%, 58.117676%, 38.322449%)" offset="0.34375"/><stop stop-opacity="1" stop-color="rgb(14.997864%, 58.241272%, 38.261414%)" offset="0.347656"/><stop stop-opacity="1" stop-color="rgb(15.274048%, 58.366394%, 38.200378%)" offset="0.351562"/><stop stop-opacity="1" stop-color="rgb(15.550232%, 58.48999%, 38.139343%)" offset="0.355469"/><stop stop-opacity="1" stop-color="rgb(15.826416%, 58.615112%, 38.079834%)" offset="0.359375"/><stop stop-opacity="1" stop-color="rgb(16.1026%, 58.740234%, 38.018799%)" offset="0.363281"/><stop stop-opacity="1" stop-color="rgb(16.378784%, 58.865356%, 37.957764%)" offset="0.367188"/><stop stop-opacity="1" stop-color="rgb(16.654968%, 58.988953%, 37.896729%)" offset="0.371094"/><stop stop-opacity="1" stop-color="rgb(16.931152%, 59.114075%, 37.837219%)" offset="0.375"/><stop stop-opacity="1" stop-color="rgb(17.207336%, 59.237671%, 37.776184%)" offset="0.378906"/><stop stop-opacity="1" stop-color="rgb(17.483521%, 59.362793%, 37.715149%)" offset="0.382812"/><stop stop-opacity="1" stop-color="rgb(17.759705%, 59.487915%, 37.654114%)" offset="0.386719"/><stop stop-opacity="1" stop-color="rgb(18.037415%, 59.613037%, 37.594604%)" offset="0.390625"/><stop stop-opacity="1" stop-color="rgb(18.313599%, 59.736633%, 37.533569%)" offset="0.394531"/><stop stop-opacity="1" stop-color="rgb(18.589783%, 59.861755%, 37.47406%)" offset="0.398438"/><stop stop-opacity="1" stop-color="rgb(18.865967%, 59.986877%, 37.413025%)" offset="0.402344"/><stop stop-opacity="1" stop-color="rgb(19.142151%, 60.112%, 37.35199%)" offset="0.40625"/><stop stop-opacity="1" stop-color="rgb(19.418335%, 60.235596%, 37.290955%)" offset="0.410156"/><stop stop-opacity="1" stop-color="rgb(19.694519%, 60.360718%, 37.231445%)" offset="0.414062"/><stop stop-opacity="1" stop-color="rgb(19.970703%, 60.484314%, 37.17041%)" offset="0.417969"/><stop stop-opacity="1" stop-color="rgb(20.246887%, 60.609436%, 37.109375%)" offset="0.421875"/><stop stop-opacity="1" stop-color="rgb(20.523071%, 60.734558%, 37.04834%)" offset="0.425781"/><stop stop-opacity="1" stop-color="rgb(20.800781%, 60.85968%, 36.988831%)" offset="0.429688"/><stop stop-opacity="1" stop-color="rgb(21.076965%, 60.983276%, 36.927795%)" offset="0.433594"/><stop stop-opacity="1" stop-color="rgb(21.353149%, 61.108398%, 36.868286%)" offset="0.4375"/><stop stop-opacity="1" stop-color="rgb(21.629333%, 61.231995%, 36.807251%)" offset="0.441406"/><stop stop-opacity="1" stop-color="rgb(21.905518%, 61.357117%, 36.746216%)" offset="0.445312"/><stop stop-opacity="1" stop-color="rgb(22.181702%, 61.482239%, 36.685181%)" offset="0.449219"/><stop stop-opacity="1" stop-color="rgb(22.457886%, 61.607361%, 36.625671%)" offset="0.453125"/><stop stop-opacity="1" stop-color="rgb(22.73407%, 61.730957%, 36.564636%)" offset="0.457031"/><stop stop-opacity="1" stop-color="rgb(23.010254%, 61.856079%, 36.503601%)" offset="0.460938"/><stop stop-opacity="1" stop-color="rgb(23.286438%, 61.979675%, 36.442566%)" offset="0.464844"/><stop stop-opacity="1" stop-color="rgb(23.562622%, 62.104797%, 36.383057%)" offset="0.46875"/><stop stop-opacity="1" stop-color="rgb(23.838806%, 62.229919%, 36.322021%)" offset="0.472656"/><stop stop-opacity="1" stop-color="rgb(24.116516%, 62.355042%, 36.260986%)" offset="0.476562"/><stop stop-opacity="1" stop-color="rgb(24.3927%, 62.478638%, 36.199951%)" offset="0.480469"/><stop stop-opacity="1" stop-color="rgb(24.668884%, 62.60376%, 36.140442%)" offset="0.484375"/><stop stop-opacity="1" stop-color="rgb(24.945068%, 62.727356%, 36.079407%)" offset="0.488281"/><stop stop-opacity="1" stop-color="rgb(25.221252%, 62.852478%, 36.019897%)" offset="0.492188"/><stop stop-opacity="1" stop-color="rgb(25.497437%, 62.9776%, 35.958862%)" offset="0.496094"/><stop stop-opacity="1" stop-color="rgb(25.773621%, 63.102722%, 35.897827%)" offset="0.5"/><stop stop-opacity="1" stop-color="rgb(26.049805%, 63.226318%, 35.836792%)" offset="0.503906"/><stop stop-opacity="1" stop-color="rgb(26.325989%, 63.35144%, 35.777283%)" offset="0.507813"/><stop stop-opacity="1" stop-color="rgb(26.602173%, 63.475037%, 35.716248%)" offset="0.511719"/><stop stop-opacity="1" stop-color="rgb(26.878357%, 63.600159%, 35.655212%)" offset="0.515625"/><stop stop-opacity="1" stop-color="rgb(27.154541%, 63.725281%, 35.594177%)" offset="0.519531"/><stop stop-opacity="1" stop-color="rgb(27.432251%, 63.850403%, 35.534668%)" offset="0.523438"/><stop stop-opacity="1" stop-color="rgb(27.708435%, 63.973999%, 35.473633%)" offset="0.527344"/><stop stop-opacity="1" stop-color="rgb(27.984619%, 64.099121%, 35.414124%)" offset="0.53125"/><stop stop-opacity="1" stop-color="rgb(28.260803%, 64.222717%, 35.353088%)" offset="0.535156"/><stop stop-opacity="1" stop-color="rgb(28.536987%, 64.347839%, 35.292053%)" offset="0.539063"/><stop stop-opacity="1" stop-color="rgb(28.813171%, 64.472961%, 35.231018%)" offset="0.542969"/><stop stop-opacity="1" stop-color="rgb(29.089355%, 64.598083%, 35.171509%)" offset="0.546875"/><stop stop-opacity="1" stop-color="rgb(29.36554%, 64.72168%, 35.110474%)" offset="0.550781"/><stop stop-opacity="1" stop-color="rgb(29.641724%, 64.846802%, 35.049438%)" offset="0.554688"/><stop stop-opacity="1" stop-color="rgb(29.917908%, 64.970398%, 34.988403%)" offset="0.558594"/><stop stop-opacity="1" stop-color="rgb(30.194092%, 65.09552%, 34.928894%)" offset="0.5625"/><stop stop-opacity="1" stop-color="rgb(30.470276%, 65.220642%, 34.867859%)" offset="0.566406"/><stop stop-opacity="1" stop-color="rgb(30.747986%, 65.345764%, 34.806824%)" offset="0.570313"/><stop stop-opacity="1" stop-color="rgb(31.02417%, 65.46936%, 34.745789%)" offset="0.574219"/><stop stop-opacity="1" stop-color="rgb(31.300354%, 65.594482%, 34.686279%)" offset="0.578125"/><stop stop-opacity="1" stop-color="rgb(31.576538%, 65.718079%, 34.625244%)" offset="0.582031"/><stop stop-opacity="1" stop-color="rgb(31.852722%, 65.843201%, 34.565735%)" offset="0.585938"/><stop stop-opacity="1" stop-color="rgb(32.128906%, 65.968323%, 34.5047%)" offset="0.589844"/><stop stop-opacity="1" stop-color="rgb(32.40509%, 66.093445%, 34.443665%)" offset="0.59375"/><stop stop-opacity="1" stop-color="rgb(32.681274%, 66.217041%, 34.382629%)" offset="0.597656"/><stop stop-opacity="1" stop-color="rgb(32.957458%, 66.342163%, 34.32312%)" offset="0.601563"/><stop stop-opacity="1" stop-color="rgb(33.233643%, 66.465759%, 34.262085%)" offset="0.605469"/><stop stop-opacity="1" stop-color="rgb(33.511353%, 66.590881%, 34.20105%)" offset="0.609375"/><stop stop-opacity="1" stop-color="rgb(33.787537%, 66.716003%, 34.140015%)" offset="0.613281"/><stop stop-opacity="1" stop-color="rgb(34.063721%, 66.841125%, 34.080505%)" offset="0.617188"/><stop stop-opacity="1" stop-color="rgb(34.339905%, 66.964722%, 34.01947%)" offset="0.621094"/><stop stop-opacity="1" stop-color="rgb(34.616089%, 67.089844%, 33.958435%)" offset="0.625"/><stop stop-opacity="1" stop-color="rgb(34.892273%, 67.214966%, 33.8974%)" offset="0.628906"/><stop stop-opacity="1" stop-color="rgb(35.168457%, 67.340088%, 33.837891%)" offset="0.632813"/><stop stop-opacity="1" stop-color="rgb(35.444641%, 67.463684%, 33.776855%)" offset="0.636719"/><stop stop-opacity="1" stop-color="rgb(35.720825%, 67.588806%, 33.717346%)" offset="0.640625"/><stop stop-opacity="1" stop-color="rgb(35.997009%, 67.712402%, 33.656311%)" offset="0.644531"/><stop stop-opacity="1" stop-color="rgb(36.273193%, 67.837524%, 33.595276%)" offset="0.648438"/><stop stop-opacity="1" stop-color="rgb(36.549377%, 67.962646%, 33.534241%)" offset="0.652344"/><stop stop-opacity="1" stop-color="rgb(36.827087%, 68.087769%, 33.474731%)" offset="0.65625"/><stop stop-opacity="1" stop-color="rgb(37.103271%, 68.211365%, 33.413696%)" offset="0.660156"/><stop stop-opacity="1" stop-color="rgb(37.379456%, 68.336487%, 33.352661%)" offset="0.664063"/><stop stop-opacity="1" stop-color="rgb(37.65564%, 68.460083%, 33.291626%)" offset="0.667969"/><stop stop-opacity="1" stop-color="rgb(37.931824%, 68.585205%, 33.232117%)" offset="0.671875"/><stop stop-opacity="1" stop-color="rgb(38.208008%, 68.710327%, 33.171082%)" offset="0.675781"/><stop stop-opacity="1" stop-color="rgb(38.484192%, 68.835449%, 33.111572%)" offset="0.679688"/><stop stop-opacity="1" stop-color="rgb(38.760376%, 68.959045%, 33.050537%)" offset="0.683594"/><stop stop-opacity="1" stop-color="rgb(39.03656%, 69.084167%, 32.989502%)" offset="0.6875"/><stop stop-opacity="1" stop-color="rgb(39.312744%, 69.207764%, 32.928467%)" offset="0.691406"/><stop stop-opacity="1" stop-color="rgb(39.588928%, 69.332886%, 32.868958%)" offset="0.695313"/><stop stop-opacity="1" stop-color="rgb(39.865112%, 69.458008%, 32.807922%)" offset="0.699219"/><stop stop-opacity="1" stop-color="rgb(40.142822%, 69.58313%, 32.746887%)" offset="0.703125"/><stop stop-opacity="1" stop-color="rgb(40.419006%, 69.706726%, 32.685852%)" offset="0.707031"/><stop stop-opacity="1" stop-color="rgb(40.69519%, 69.831848%, 32.626343%)" offset="0.710938"/><stop stop-opacity="1" stop-color="rgb(40.971375%, 69.955444%, 32.565308%)" offset="0.714844"/><stop stop-opacity="1" stop-color="rgb(41.247559%, 70.080566%, 32.504272%)" offset="0.71875"/><stop stop-opacity="1" stop-color="rgb(41.523743%, 70.205688%, 32.443237%)" offset="0.722656"/><stop stop-opacity="1" stop-color="rgb(41.799927%, 70.330811%, 32.383728%)" offset="0.726563"/><stop stop-opacity="1" stop-color="rgb(42.076111%, 70.454407%, 32.322693%)" offset="0.730469"/><stop stop-opacity="1" stop-color="rgb(42.352295%, 70.579529%, 32.263184%)" offset="0.734375"/><stop stop-opacity="1" stop-color="rgb(42.628479%, 70.703125%, 32.202148%)" offset="0.738281"/><stop stop-opacity="1" stop-color="rgb(42.904663%, 70.828247%, 32.141113%)" offset="0.742188"/><stop stop-opacity="1" stop-color="rgb(43.180847%, 70.953369%, 32.080078%)" offset="0.746094"/><stop stop-opacity="1" stop-color="rgb(43.458557%, 71.078491%, 32.020569%)" offset="0.75"/><stop stop-opacity="1" stop-color="rgb(43.734741%, 71.202087%, 31.959534%)" offset="0.753906"/><stop stop-opacity="1" stop-color="rgb(44.010925%, 71.327209%, 31.898499%)" offset="0.757813"/><stop stop-opacity="1" stop-color="rgb(44.287109%, 71.450806%, 31.837463%)" offset="0.761719"/><stop stop-opacity="1" stop-color="rgb(44.563293%, 71.575928%, 31.777954%)" offset="0.765625"/><stop stop-opacity="1" stop-color="rgb(44.839478%, 71.70105%, 31.716919%)" offset="0.769531"/><stop stop-opacity="1" stop-color="rgb(45.115662%, 71.826172%, 31.65741%)" offset="0.773438"/><stop stop-opacity="1" stop-color="rgb(45.391846%, 71.949768%, 31.596375%)" offset="0.777344"/><stop stop-opacity="1" stop-color="rgb(45.66803%, 72.07489%, 31.535339%)" offset="0.78125"/><stop stop-opacity="1" stop-color="rgb(45.944214%, 72.198486%, 31.474304%)" offset="0.785156"/><stop stop-opacity="1" stop-color="rgb(46.221924%, 72.323608%, 31.414795%)" offset="0.789063"/><stop stop-opacity="1" stop-color="rgb(46.498108%, 72.44873%, 31.35376%)" offset="0.792969"/><stop stop-opacity="1" stop-color="rgb(46.774292%, 72.573853%, 31.292725%)" offset="0.796875"/><stop stop-opacity="1" stop-color="rgb(47.050476%, 72.697449%, 31.231689%)" offset="0.800781"/><stop stop-opacity="1" stop-color="rgb(47.32666%, 72.822571%, 31.17218%)" offset="0.804688"/><stop stop-opacity="1" stop-color="rgb(47.602844%, 72.946167%, 31.111145%)" offset="0.808594"/><stop stop-opacity="1" stop-color="rgb(47.879028%, 73.071289%, 31.05011%)" offset="0.8125"/><stop stop-opacity="1" stop-color="rgb(48.155212%, 73.196411%, 30.989075%)" offset="0.816406"/><stop stop-opacity="1" stop-color="rgb(48.431396%, 73.321533%, 30.929565%)" offset="0.820313"/><stop stop-opacity="1" stop-color="rgb(48.707581%, 73.445129%, 30.86853%)" offset="0.824219"/><stop stop-opacity="1" stop-color="rgb(48.983765%, 73.570251%, 30.809021%)" offset="0.828125"/><stop stop-opacity="1" stop-color="rgb(49.259949%, 73.693848%, 30.747986%)" offset="0.832031"/><stop stop-opacity="1" stop-color="rgb(49.537659%, 73.81897%, 30.686951%)" offset="0.835938"/><stop stop-opacity="1" stop-color="rgb(49.813843%, 73.944092%, 30.625916%)" offset="0.839844"/><stop stop-opacity="1" stop-color="rgb(50.090027%, 74.069214%, 30.566406%)" offset="0.84375"/><stop stop-opacity="1" stop-color="rgb(50.366211%, 74.19281%, 30.505371%)" offset="0.847656"/><stop stop-opacity="1" stop-color="rgb(50.642395%, 74.317932%, 30.444336%)" offset="0.851563"/><stop stop-opacity="1" stop-color="rgb(50.918579%, 74.443054%, 30.383301%)" offset="0.855469"/><stop stop-opacity="1" stop-color="rgb(51.194763%, 74.568176%, 30.323792%)" offset="0.859375"/><stop stop-opacity="1" stop-color="rgb(51.470947%, 74.691772%, 30.262756%)" offset="0.863281"/><stop stop-opacity="1" stop-color="rgb(51.747131%, 74.816895%, 30.201721%)" offset="0.867188"/><stop stop-opacity="1" stop-color="rgb(52.023315%, 74.940491%, 30.140686%)" offset="0.871094"/><stop stop-opacity="1" stop-color="rgb(52.2995%, 75.065613%, 30.081177%)" offset="0.875"/><stop stop-opacity="1" stop-color="rgb(52.575684%, 75.190735%, 30.020142%)" offset="0.878906"/><stop stop-opacity="1" stop-color="rgb(52.853394%, 75.315857%, 29.960632%)" offset="0.882813"/><stop stop-opacity="1" stop-color="rgb(53.129578%, 75.439453%, 29.899597%)" offset="0.886719"/><stop stop-opacity="1" stop-color="rgb(53.405762%, 75.564575%, 29.838562%)" offset="0.890625"/><stop stop-opacity="1" stop-color="rgb(53.681946%, 75.688171%, 29.777527%)" offset="0.894531"/><stop stop-opacity="1" stop-color="rgb(53.95813%, 75.813293%, 29.718018%)" offset="0.898438"/><stop stop-opacity="1" stop-color="rgb(54.234314%, 75.938416%, 29.656982%)" offset="0.902344"/><stop stop-opacity="1" stop-color="rgb(54.510498%, 76.063538%, 29.595947%)" offset="0.90625"/><stop stop-opacity="1" stop-color="rgb(54.786682%, 76.187134%, 29.534912%)" offset="0.910156"/><stop stop-opacity="1" stop-color="rgb(55.062866%, 76.312256%, 29.475403%)" offset="0.914063"/><stop stop-opacity="1" stop-color="rgb(55.33905%, 76.435852%, 29.414368%)" offset="0.917969"/><stop stop-opacity="1" stop-color="rgb(55.61676%, 76.560974%, 29.354858%)" offset="0.921875"/><stop stop-opacity="1" stop-color="rgb(55.892944%, 76.686096%, 29.293823%)" offset="0.925781"/><stop stop-opacity="1" stop-color="rgb(56.169128%, 76.811218%, 29.232788%)" offset="0.929688"/><stop stop-opacity="1" stop-color="rgb(56.445312%, 76.934814%, 29.171753%)" offset="0.933594"/><stop stop-opacity="1" stop-color="rgb(56.721497%, 77.059937%, 29.112244%)" offset="0.9375"/><stop stop-opacity="1" stop-color="rgb(56.997681%, 77.183533%, 29.051208%)" offset="0.941406"/><stop stop-opacity="1" stop-color="rgb(57.273865%, 77.308655%, 28.990173%)" offset="0.945313"/><stop stop-opacity="1" stop-color="rgb(57.550049%, 77.433777%, 28.929138%)" offset="0.949219"/><stop stop-opacity="1" stop-color="rgb(57.826233%, 77.558899%, 28.869629%)" offset="0.953125"/><stop stop-opacity="1" stop-color="rgb(58.102417%, 77.682495%, 28.808594%)" offset="0.957031"/><stop stop-opacity="1" stop-color="rgb(58.378601%, 77.807617%, 28.747559%)" offset="0.960938"/><stop stop-opacity="1" stop-color="rgb(58.654785%, 77.931213%, 28.686523%)" offset="0.964844"/><stop stop-opacity="1" stop-color="rgb(58.932495%, 78.056335%, 28.627014%)" offset="0.96875"/><stop stop-opacity="1" stop-color="rgb(59.208679%, 78.181458%, 28.565979%)" offset="0.972656"/><stop stop-opacity="1" stop-color="rgb(59.484863%, 78.30658%, 28.50647%)" offset="0.976563"/><stop stop-opacity="1" stop-color="rgb(59.761047%, 78.430176%, 28.445435%)" offset="0.980469"/><stop stop-opacity="1" stop-color="rgb(60.037231%, 78.555298%, 28.384399%)" offset="0.984375"/><stop stop-opacity="1" stop-color="rgb(60.313416%, 78.678894%, 28.323364%)" offset="0.988281"/><stop stop-opacity="1" stop-color="rgb(60.5896%, 78.804016%, 28.263855%)" offset="0.992188"/><stop stop-opacity="1" stop-color="rgb(60.865784%, 78.929138%, 28.20282%)" offset="0.996094"/><stop stop-opacity="1" stop-color="rgb(61.141968%, 79.05426%, 28.141785%)" offset="1"/></linearGradient></defs><g clip-path="url(#bd4c7296ab)"><g clip-path="url(#93ba10e00d)"><path fill="url(#8d9629f8e3)" d="M 157.078125 88.53125 L 157.078125 210.023438 L 221.578125 210.023438 L 221.578125 88.53125 Z M 157.078125 88.53125 " fill-rule="nonzero"/></g></g><g fill="#a8cf45" fill-opacity="1"><g transform="translate(151.281197, 246.733456)"><g><path d="M 11.578125 -24.796875 C 14.703125 -24.796875 16.265625 -23.132812 16.265625 -19.8125 L 16.265625 0 L 10.984375 0 L 10.984375 -8.1875 L 7.171875 -8.1875 L 7.171875 0 L 1.890625 0 L 1.890625 -19.8125 C 1.890625 -23.132812 3.445312 -24.796875 6.5625 -24.796875 Z M 7.171875 -12.265625 L 10.984375 -12.265625 L 10.984375 -20.453125 C 10.984375 -20.648438 10.910156 -20.820312 10.765625 -20.96875 C 10.628906 -21.125 10.460938 -21.203125 10.265625 -21.203125 L 7.890625 -21.203125 C 7.679688 -21.203125 7.507812 -21.125 7.375 -20.96875 C 7.238281 -20.820312 7.171875 -20.648438 7.171875 -20.453125 Z M 7.171875 -12.265625 "/></g></g></g><g fill="#a8cf45" fill-opacity="1"><g transform="translate(171.357971, 246.733456)"><g><path d="M 9.015625 -9.703125 L 9.015625 -13.578125 L 16 -13.578125 L 16 -4.609375 C 16 -1.285156 14.4375 0.375 11.3125 0.375 L 6.5625 0.375 C 3.445312 0.375 1.890625 -1.285156 1.890625 -4.609375 L 1.890625 -19.8125 C 1.890625 -23.132812 3.445312 -24.796875 6.5625 -24.796875 L 11.3125 -24.796875 C 14.4375 -24.796875 16 -23.132812 16 -19.8125 L 16 -17.515625 L 10.984375 -17.515625 L 10.984375 -20.453125 C 10.984375 -20.648438 10.910156 -20.820312 10.765625 -20.96875 C 10.628906 -21.125 10.460938 -21.203125 10.265625 -21.203125 L 7.890625 -21.203125 C 7.679688 -21.203125 7.507812 -21.125 7.375 -20.96875 C 7.238281 -20.820312 7.171875 -20.648438 7.171875 -20.453125 L 7.171875 -4 C 7.171875 -3.800781 7.238281 -3.625 7.375 -3.46875 C 7.507812 -3.320312 7.679688 -3.25 7.890625 -3.25 L 10.265625 -3.25 C 10.460938 -3.25 10.628906 -3.320312 10.765625 -3.46875 C 10.910156 -3.625 10.984375 -3.800781 10.984375 -4 L 10.984375 -9.703125 Z M 9.015625 -9.703125 "/></g></g></g><g fill="#a8cf45" fill-opacity="1"><g transform="translate(190.151644, 246.733456)"><g><path d="M 7.171875 -10 L 7.171875 0 L 1.890625 0 L 1.890625 -24.421875 L 11.28125 -24.421875 C 14.40625 -24.421875 15.96875 -22.757812 15.96875 -19.4375 L 15.96875 -16.609375 C 15.96875 -14.585938 15.25 -13.300781 13.8125 -12.75 C 15.070312 -12.300781 15.703125 -11.269531 15.703125 -9.65625 L 15.703125 0 L 10.421875 0 L 10.421875 -9.25 C 10.421875 -9.75 10.179688 -10 9.703125 -10 Z M 7.171875 -20.828125 L 7.171875 -13.703125 L 9.96875 -13.703125 C 10.164062 -13.703125 10.332031 -13.773438 10.46875 -13.921875 C 10.601562 -14.078125 10.671875 -14.253906 10.671875 -14.453125 L 10.671875 -20.078125 C 10.671875 -20.273438 10.601562 -20.445312 10.46875 -20.59375 C 10.332031 -20.75 10.164062 -20.828125 9.96875 -20.828125 Z M 7.171875 -20.828125 "/></g></g></g><g fill="#a8cf45" fill-opacity="1"><g transform="translate(209.398172, 246.733456)"><g><path d="M 16.265625 -19.8125 L 16.265625 -4.609375 C 16.265625 -1.285156 14.703125 0.375 11.578125 0.375 L 6.5625 0.375 C 3.445312 0.375 1.890625 -1.285156 1.890625 -4.609375 L 1.890625 -19.8125 C 1.890625 -23.132812 3.445312 -24.796875 6.5625 -24.796875 L 11.578125 -24.796875 C 14.703125 -24.796875 16.265625 -23.132812 16.265625 -19.8125 Z M 10.984375 -4 L 10.984375 -20.453125 C 10.984375 -20.648438 10.910156 -20.820312 10.765625 -20.96875 C 10.628906 -21.125 10.460938 -21.203125 10.265625 -21.203125 L 7.890625 -21.203125 C 7.679688 -21.203125 7.507812 -21.125 7.375 -20.96875 C 7.238281 -20.820312 7.171875 -20.648438 7.171875 -20.453125 L 7.171875 -4 C 7.171875 -3.800781 7.238281 -3.625 7.375 -3.46875 C 7.507812 -3.320312 7.679688 -3.25 7.890625 -3.25 L 10.265625 -3.25 C 10.460938 -3.25 10.628906 -3.320312 10.765625 -3.46875 C 10.910156 -3.625 10.984375 -3.800781 10.984375 -4 Z M 10.984375 -4 "/></g></g></g><g fill="#048569" fill-opacity="1"><g transform="translate(111.514079, 277.332078)"><g><path d="M 6.53125 -2.375 L 6.53125 -4.625 L 9.53125 -4.625 L 9.53125 -2.734375 C 9.53125 -0.765625 8.597656 0.21875 6.734375 0.21875 L 3.90625 0.21875 C 2.050781 0.21875 1.125 -0.765625 1.125 -2.734375 L 1.125 -11.796875 C 1.125 -13.773438 2.050781 -14.765625 3.90625 -14.765625 L 6.734375 -14.765625 C 8.597656 -14.765625 9.53125 -13.773438 9.53125 -11.796875 L 9.53125 -10.421875 L 6.53125 -10.421875 L 6.53125 -12.171875 C 6.53125 -12.296875 6.488281 -12.398438 6.40625 -12.484375 C 6.332031 -12.578125 6.234375 -12.625 6.109375 -12.625 L 4.703125 -12.625 C 4.578125 -12.625 4.472656 -12.578125 4.390625 -12.484375 C 4.304688 -12.398438 4.265625 -12.296875 4.265625 -12.171875 L 4.265625 -2.375 C 4.265625 -2.257812 4.304688 -2.15625 4.390625 -2.0625 C 4.472656 -1.976562 4.578125 -1.9375 4.703125 -1.9375 L 6.109375 -1.9375 C 6.234375 -1.9375 6.332031 -1.976562 6.40625 -2.0625 C 6.488281 -2.15625 6.53125 -2.257812 6.53125 -2.375 Z M 6.53125 -2.375 "/></g></g></g><g fill="#048569" fill-opacity="1"><g transform="translate(128.456534, 277.332078)"><g><path d="M 9.6875 -11.796875 L 9.6875 -2.734375 C 9.6875 -0.765625 8.753906 0.21875 6.890625 0.21875 L 3.90625 0.21875 C 2.050781 0.21875 1.125 -0.765625 1.125 -2.734375 L 1.125 -11.796875 C 1.125 -13.773438 2.050781 -14.765625 3.90625 -14.765625 L 6.890625 -14.765625 C 8.753906 -14.765625 9.6875 -13.773438 9.6875 -11.796875 Z M 6.53125 -2.375 L 6.53125 -12.171875 C 6.53125 -12.296875 6.488281 -12.398438 6.40625 -12.484375 C 6.332031 -12.578125 6.234375 -12.625 6.109375 -12.625 L 4.703125 -12.625 C 4.578125 -12.625 4.472656 -12.578125 4.390625 -12.484375 C 4.304688 -12.398438 4.265625 -12.296875 4.265625 -12.171875 L 4.265625 -2.375 C 4.265625 -2.257812 4.304688 -2.15625 4.390625 -2.0625 C 4.472656 -1.976562 4.578125 -1.9375 4.703125 -1.9375 L 6.109375 -1.9375 C 6.234375 -1.9375 6.332031 -1.976562 6.40625 -2.0625 C 6.488281 -2.15625 6.53125 -2.257812 6.53125 -2.375 Z M 6.53125 -2.375 "/></g></g></g><g fill="#048569" fill-opacity="1"><g transform="translate(145.983134, 277.332078)"><g><path d="M 9.453125 0 L 6.3125 0 L 6.3125 -12.0625 C 6.3125 -12.1875 6.269531 -12.289062 6.1875 -12.375 C 6.101562 -12.46875 6.003906 -12.515625 5.890625 -12.515625 L 4.671875 -12.515625 C 4.554688 -12.515625 4.457031 -12.46875 4.375 -12.375 C 4.289062 -12.289062 4.25 -12.1875 4.25 -12.0625 L 4.25 0 L 1.09375 0 L 1.09375 -11.796875 C 1.09375 -13.773438 2.023438 -14.765625 3.890625 -14.765625 L 6.671875 -14.765625 C 8.523438 -14.765625 9.453125 -13.773438 9.453125 -11.796875 Z M 9.453125 0 "/></g></g></g><g fill="#048569" fill-opacity="1"><g transform="translate(163.082856, 277.332078)"><g><path d="M 9.453125 0 L 6.3125 0 L 6.3125 -12.0625 C 6.3125 -12.1875 6.269531 -12.289062 6.1875 -12.375 C 6.101562 -12.46875 6.003906 -12.515625 5.890625 -12.515625 L 4.671875 -12.515625 C 4.554688 -12.515625 4.457031 -12.46875 4.375 -12.375 C 4.289062 -12.289062 4.25 -12.1875 4.25 -12.0625 L 4.25 0 L 1.09375 0 L 1.09375 -11.796875 C 1.09375 -13.773438 2.023438 -14.765625 3.890625 -14.765625 L 6.671875 -14.765625 C 8.523438 -14.765625 9.453125 -13.773438 9.453125 -11.796875 Z M 9.453125 0 "/></g></g></g><g fill="#048569" fill-opacity="1"><g transform="translate(180.182582, 277.332078)"><g><path d="M 4.265625 -2.609375 L 7.75 -2.609375 L 7.75 0 L 1.125 0 L 1.125 -14.53125 L 7.75 -14.53125 L 7.75 -11.96875 L 4.265625 -11.96875 L 4.265625 -8.5625 L 7.53125 -8.5625 L 7.53125 -6.09375 L 4.265625 -6.09375 Z M 4.265625 -2.609375 "/></g></g></g><g fill="#048569" fill-opacity="1"><g transform="translate(195.282746, 277.332078)"><g><path d="M 6.53125 -2.375 L 6.53125 -4.625 L 9.53125 -4.625 L 9.53125 -2.734375 C 9.53125 -0.765625 8.597656 0.21875 6.734375 0.21875 L 3.90625 0.21875 C 2.050781 0.21875 1.125 -0.765625 1.125 -2.734375 L 1.125 -11.796875 C 1.125 -13.773438 2.050781 -14.765625 3.90625 -14.765625 L 6.734375 -14.765625 C 8.597656 -14.765625 9.53125 -13.773438 9.53125 -11.796875 L 9.53125 -10.421875 L 6.53125 -10.421875 L 6.53125 -12.171875 C 6.53125 -12.296875 6.488281 -12.398438 6.40625 -12.484375 C 6.332031 -12.578125 6.234375 -12.625 6.109375 -12.625 L 4.703125 -12.625 C 4.578125 -12.625 4.472656 -12.578125 4.390625 -12.484375 C 4.304688 -12.398438 4.265625 -12.296875 4.265625 -12.171875 L 4.265625 -2.375 C 4.265625 -2.257812 4.304688 -2.15625 4.390625 -2.0625 C 4.472656 -1.976562 4.578125 -1.9375 4.703125 -1.9375 L 6.109375 -1.9375 C 6.234375 -1.9375 6.332031 -1.976562 6.40625 -2.0625 C 6.488281 -2.15625 6.53125 -2.257812 6.53125 -2.375 Z M 6.53125 -2.375 "/></g></g></g><g fill="#048569" fill-opacity="1"><g transform="translate(212.225204, 277.332078)"><g><path d="M 0.296875 -11.859375 L 0.296875 -14.53125 L 8.15625 -14.53125 L 8.15625 -11.859375 L 5.796875 -11.859375 L 5.796875 0 L 2.65625 0 L 2.65625 -11.859375 Z M 0.296875 -11.859375 "/></g></g></g><g fill="#048569" fill-opacity="1"><g transform="translate(227.347838, 277.332078)"><g><path d="M 4.265625 -14.53125 L 4.265625 0 L 1.125 0 L 1.125 -14.53125 Z M 4.265625 -14.53125 "/></g></g></g><g fill="#048569" fill-opacity="1"><g transform="translate(239.482359, 277.332078)"><g><path d="M 9.6875 -11.796875 L 9.6875 -2.734375 C 9.6875 -0.765625 8.753906 0.21875 6.890625 0.21875 L 3.90625 0.21875 C 2.050781 0.21875 1.125 -0.765625 1.125 -2.734375 L 1.125 -11.796875 C 1.125 -13.773438 2.050781 -14.765625 3.90625 -14.765625 L 6.890625 -14.765625 C 8.753906 -14.765625 9.6875 -13.773438 9.6875 -11.796875 Z M 6.53125 -2.375 L 6.53125 -12.171875 C 6.53125 -12.296875 6.488281 -12.398438 6.40625 -12.484375 C 6.332031 -12.578125 6.234375 -12.625 6.109375 -12.625 L 4.703125 -12.625 C 4.578125 -12.625 4.472656 -12.578125 4.390625 -12.484375 C 4.304688 -12.398438 4.265625 -12.296875 4.265625 -12.171875 L 4.265625 -2.375 C 4.265625 -2.257812 4.304688 -2.15625 4.390625 -2.0625 C 4.472656 -1.976562 4.578125 -1.9375 4.703125 -1.9375 L 6.109375 -1.9375 C 6.234375 -1.9375 6.332031 -1.976562 6.40625 -2.0625 C 6.488281 -2.15625 6.53125 -2.257812 6.53125 -2.375 Z M 6.53125 -2.375 "/></g></g></g><g fill="#048569" fill-opacity="1"><g transform="translate(257.008952, 277.332078)"><g><path d="M 9.453125 0 L 6.3125 0 L 6.3125 -12.0625 C 6.3125 -12.1875 6.269531 -12.289062 6.1875 -12.375 C 6.101562 -12.46875 6.003906 -12.515625 5.890625 -12.515625 L 4.671875 -12.515625 C 4.554688 -12.515625 4.457031 -12.46875 4.375 -12.375 C 4.289062 -12.289062 4.25 -12.1875 4.25 -12.0625 L 4.25 0 L 1.09375 0 L 1.09375 -11.796875 C 1.09375 -13.773438 2.023438 -14.765625 3.890625 -14.765625 L 6.671875 -14.765625 C 8.523438 -14.765625 9.453125 -13.773438 9.453125 -11.796875 Z M 9.453125 0 "/></g></g></g></svg>